<svg xmlns="http://www.w3.org/2000/svg" xmlns:xlink="http://www.w3.org/1999/xlink" width="197" zoomAndPan="magnify" viewBox="0 0 147.75 30.000001" height="40" preserveAspectRatio="xMidYMid meet" version="1.0"><defs><g/><clipPath id="e455042347"><path d="M 3.890625 5.609375 L 24 5.609375 L 24 22 L 3.890625 22 Z M 3.890625 5.609375 " clip-rule="nonzero"/></clipPath><clipPath id="f94e096dbc"><path d="M 8 21 L 13 21 L 13 25.203125 L 8 25.203125 Z M 8 21 " clip-rule="nonzero"/></clipPath><clipPath id="497be358f3"><path d="M 18 21 L 22 21 L 22 25.203125 L 18 25.203125 Z M 18 21 " clip-rule="nonzero"/></clipPath></defs><g fill="#ffffff" fill-opacity="1"><g transform="translate(29.130131, 23.951614)"><g><path d="M 5.5625 0 L 2.25 0 L 2.25 -17.28125 L 6.15625 -17.28125 L 13.109375 -6.15625 L 13.40625 -6.203125 L 13.40625 -17.28125 L 16.703125 -17.28125 L 16.703125 0 L 13.203125 0 L 5.859375 -11.890625 L 5.5625 -11.84375 Z M 5.5625 0 "/></g></g></g><g fill="#ffffff" fill-opacity="1"><g transform="translate(48.08158, 23.951614)"><g><path d="M 12.890625 -5.78125 L 4.5 -5.78125 C 4.59375 -4.644531 4.914062 -3.816406 5.46875 -3.296875 C 6.019531 -2.785156 6.773438 -2.53125 7.734375 -2.53125 C 8.484375 -2.53125 9.085938 -2.671875 9.546875 -2.953125 C 10.015625 -3.234375 10.390625 -3.65625 10.671875 -4.21875 L 10.921875 -4.21875 L 13.109375 -2.828125 C 12.679688 -1.910156 12.035156 -1.164062 11.171875 -0.59375 C 10.316406 -0.03125 9.171875 0.25 7.734375 0.25 C 6.390625 0.25 5.222656 -0.00390625 4.234375 -0.515625 C 3.253906 -1.023438 2.5 -1.785156 1.96875 -2.796875 C 1.4375 -3.816406 1.171875 -5.054688 1.171875 -6.515625 C 1.171875 -7.992188 1.445312 -9.242188 2 -10.265625 C 2.5625 -11.285156 3.320312 -12.046875 4.28125 -12.546875 C 5.238281 -13.046875 6.3125 -13.296875 7.5 -13.296875 C 9.34375 -13.296875 10.753906 -12.804688 11.734375 -11.828125 C 12.710938 -10.847656 13.203125 -9.410156 13.203125 -7.515625 C 13.203125 -6.835938 13.179688 -6.304688 13.140625 -5.921875 Z M 10.078125 -7.90625 C 10.046875 -8.894531 9.8125 -9.613281 9.375 -10.0625 C 8.945312 -10.519531 8.320312 -10.75 7.5 -10.75 C 5.84375 -10.75 4.867188 -9.800781 4.578125 -7.90625 Z M 10.078125 -7.90625 "/></g></g></g><g fill="#ffffff" fill-opacity="1"><g transform="translate(62.055702, 23.951614)"><g><path d="M 3.671875 0 L 0.21875 0 L 3.953125 -6.765625 L 0.421875 -13.046875 L 3.921875 -13.046875 L 6.1875 -8.75 L 6.453125 -8.75 L 8.734375 -13.046875 L 12.125 -13.046875 L 8.703125 -6.765625 L 12.328125 0 L 8.828125 0 L 6.375 -4.765625 L 6.109375 -4.765625 Z M 3.671875 0 "/></g></g></g><g fill="#f8a003" fill-opacity="1"><g transform="translate(74.606441, 23.951614)"><g><path d="M 9.453125 0.25 C 7.859375 0.25 6.453125 -0.078125 5.234375 -0.734375 C 4.023438 -1.398438 3.078125 -2.394531 2.390625 -3.71875 C 1.703125 -5.050781 1.359375 -6.691406 1.359375 -8.640625 C 1.359375 -10.585938 1.703125 -12.222656 2.390625 -13.546875 C 3.078125 -14.878906 4.023438 -15.875 5.234375 -16.53125 C 6.453125 -17.195312 7.859375 -17.53125 9.453125 -17.53125 C 11.109375 -17.53125 12.519531 -17.207031 13.6875 -16.5625 C 14.851562 -15.914062 15.679688 -14.925781 16.171875 -13.59375 L 13.6875 -12.0625 L 13.390625 -12.078125 C 13.015625 -12.972656 12.507812 -13.613281 11.875 -14 C 11.238281 -14.394531 10.429688 -14.59375 9.453125 -14.59375 C 8.015625 -14.59375 6.894531 -14.117188 6.09375 -13.171875 C 5.289062 -12.222656 4.890625 -10.710938 4.890625 -8.640625 C 4.890625 -6.585938 5.289062 -5.082031 6.09375 -4.125 C 6.894531 -3.175781 8.015625 -2.703125 9.453125 -2.703125 C 11.691406 -2.703125 13.066406 -3.796875 13.578125 -5.984375 L 13.875 -5.984375 L 16.390625 -4.671875 C 15.921875 -3.035156 15.113281 -1.804688 13.96875 -0.984375 C 12.820312 -0.160156 11.316406 0.25 9.453125 0.25 Z M 9.453125 0.25 "/></g></g></g><g fill="#f8a003" fill-opacity="1"><g transform="translate(91.559884, 23.951614)"><g><path d="M 5.078125 0.25 C 4.242188 0.25 3.519531 0.0976562 2.90625 -0.203125 C 2.289062 -0.515625 1.816406 -0.96875 1.484375 -1.5625 C 1.160156 -2.15625 1 -2.875 1 -3.71875 C 1 -4.488281 1.160156 -5.132812 1.484375 -5.65625 C 1.816406 -6.175781 2.328125 -6.601562 3.015625 -6.9375 C 3.710938 -7.28125 4.625 -7.539062 5.75 -7.71875 C 6.53125 -7.84375 7.125 -7.976562 7.53125 -8.125 C 7.9375 -8.28125 8.207031 -8.453125 8.34375 -8.640625 C 8.488281 -8.828125 8.5625 -9.066406 8.5625 -9.359375 C 8.5625 -9.785156 8.414062 -10.109375 8.125 -10.328125 C 7.832031 -10.546875 7.347656 -10.65625 6.671875 -10.65625 C 5.941406 -10.65625 5.25 -10.492188 4.59375 -10.171875 C 3.945312 -9.847656 3.378906 -9.421875 2.890625 -8.890625 L 2.65625 -8.890625 L 1.28125 -10.96875 C 1.945312 -11.695312 2.753906 -12.265625 3.703125 -12.671875 C 4.660156 -13.085938 5.703125 -13.296875 6.828125 -13.296875 C 8.554688 -13.296875 9.804688 -12.925781 10.578125 -12.1875 C 11.359375 -11.457031 11.75 -10.414062 11.75 -9.0625 L 11.75 -3.40625 C 11.75 -2.820312 12.003906 -2.53125 12.515625 -2.53125 C 12.710938 -2.53125 12.90625 -2.566406 13.09375 -2.640625 L 13.25 -2.59375 L 13.5 -0.3125 C 13.3125 -0.1875 13.054688 -0.0859375 12.734375 -0.015625 C 12.410156 0.0546875 12.054688 0.09375 11.671875 0.09375 C 10.890625 0.09375 10.28125 -0.0507812 9.84375 -0.34375 C 9.40625 -0.644531 9.09375 -1.117188 8.90625 -1.765625 L 8.65625 -1.78125 C 8.019531 -0.425781 6.828125 0.25 5.078125 0.25 Z M 6.125 -2.203125 C 6.882812 -2.203125 7.488281 -2.453125 7.9375 -2.953125 C 8.394531 -3.460938 8.625 -4.171875 8.625 -5.078125 L 8.625 -6.40625 L 8.390625 -6.453125 C 8.191406 -6.296875 7.929688 -6.164062 7.609375 -6.0625 C 7.296875 -5.957031 6.84375 -5.851562 6.25 -5.75 C 5.53125 -5.625 5.015625 -5.414062 4.703125 -5.125 C 4.398438 -4.84375 4.25 -4.441406 4.25 -3.921875 C 4.25 -3.359375 4.410156 -2.929688 4.734375 -2.640625 C 5.066406 -2.347656 5.53125 -2.203125 6.125 -2.203125 Z M 6.125 -2.203125 "/></g></g></g><g fill="#f8a003" fill-opacity="1"><g transform="translate(105.30944, 23.951614)"><g><path d="M 1.875 0 L 1.875 -13.046875 L 5.0625 -13.046875 L 5.0625 -11.109375 L 5.3125 -11.0625 C 5.625 -11.78125 6.035156 -12.304688 6.546875 -12.640625 C 7.054688 -12.984375 7.679688 -13.15625 8.421875 -13.15625 C 9.160156 -13.15625 9.722656 -13.03125 10.109375 -12.78125 L 9.5625 -9.953125 L 9.3125 -9.90625 C 9.09375 -10 8.882812 -10.0625 8.6875 -10.09375 C 8.488281 -10.132812 8.25 -10.15625 7.96875 -10.15625 C 7.050781 -10.15625 6.351562 -9.832031 5.875 -9.1875 C 5.394531 -8.550781 5.15625 -7.523438 5.15625 -6.109375 L 5.15625 0 Z M 1.875 0 "/></g></g></g><g fill="#f8a003" fill-opacity="1"><g transform="translate(115.701465, 23.951614)"><g><path d="M 9 -3.109375 L 9.84375 -0.6875 C 9.488281 -0.394531 9.039062 -0.164062 8.5 0 C 7.96875 0.164062 7.363281 0.25 6.6875 0.25 C 5.28125 0.25 4.207031 -0.132812 3.46875 -0.90625 C 2.738281 -1.675781 2.375 -2.789062 2.375 -4.25 L 2.375 -10.453125 L 0.390625 -10.453125 L 0.390625 -13.0625 L 2.375 -13.0625 L 2.375 -15.59375 L 5.65625 -16.125 L 5.65625 -13.0625 L 9.359375 -13.0625 L 9.359375 -10.453125 L 5.65625 -10.453125 L 5.65625 -4.5 C 5.65625 -3.851562 5.785156 -3.378906 6.046875 -3.078125 C 6.316406 -2.785156 6.707031 -2.640625 7.21875 -2.640625 C 7.800781 -2.640625 8.3125 -2.796875 8.75 -3.109375 Z M 9 -3.109375 "/></g></g></g><g clip-path="url(#e455042347)"><path fill="#f8a003" d="M 23.679688 8.816406 C 23.519531 8.621094 23.285156 8.511719 23.035156 8.511719 L 8.773438 8.511719 L 8.085938 6.207031 C 7.980469 5.851562 7.652344 5.609375 7.285156 5.609375 L 4.730469 5.609375 C 4.269531 5.609375 3.894531 5.980469 3.894531 6.445312 C 3.894531 6.90625 4.269531 7.28125 4.730469 7.28125 L 6.660156 7.28125 L 9.785156 17.773438 C 9.445312 18.394531 9.125 19.285156 9.488281 20.027344 C 9.8125 20.6875 10.539062 21.023438 11.65625 21.023438 C 11.675781 21.023438 11.695312 21.019531 11.714844 21.019531 C 11.789062 21.011719 18.988281 20.351562 21.472656 20.492188 C 21.835938 20.511719 22.148438 20.234375 22.167969 19.871094 C 22.1875 19.507812 21.910156 19.195312 21.546875 19.175781 C 19.027344 19.03125 12.21875 19.648438 11.625 19.703125 C 11.015625 19.699219 10.730469 19.5625 10.675781 19.449219 C 10.613281 19.320312 10.65625 19.078125 10.761719 18.804688 C 10.78125 18.804688 10.796875 18.804688 10.816406 18.800781 L 21.726562 17.480469 C 22.085938 17.4375 22.378906 17.164062 22.445312 16.808594 L 23.855469 9.507812 C 23.902344 9.261719 23.835938 9.007812 23.679688 8.816406 Z M 17.621094 12.871094 L 14.191406 12.871094 L 14.191406 10.183594 L 17.621094 10.183594 Z M 10.304688 13.664062 L 13.398438 13.664062 L 13.398438 16.804688 L 11.316406 17.054688 Z M 14.191406 13.664062 L 17.621094 13.664062 L 17.621094 16.292969 L 14.191406 16.707031 Z M 21.503906 12.871094 L 18.414062 12.871094 L 18.414062 10.183594 L 22.023438 10.183594 Z M 13.398438 10.183594 L 13.398438 12.871094 L 10.070312 12.871094 L 9.269531 10.183594 Z M 18.414062 16.199219 L 18.414062 13.664062 L 21.351562 13.664062 L 20.921875 15.894531 Z M 18.414062 16.199219 " fill-opacity="1" fill-rule="nonzero"/></g><g clip-path="url(#f94e096dbc)"><path fill="#f8a003" d="M 12.300781 23.335938 C 12.300781 23.558594 12.257812 23.769531 12.171875 23.976562 C 12.085938 24.179688 11.96875 24.359375 11.808594 24.519531 C 11.652344 24.675781 11.472656 24.796875 11.269531 24.878906 C 11.0625 24.964844 10.851562 25.007812 10.628906 25.007812 C 10.40625 25.007812 10.195312 24.964844 9.988281 24.878906 C 9.785156 24.796875 9.605469 24.675781 9.449219 24.519531 C 9.292969 24.359375 9.171875 24.179688 9.085938 23.976562 C 9 23.769531 8.957031 23.558594 8.957031 23.335938 C 8.957031 23.113281 9 22.902344 9.085938 22.699219 C 9.171875 22.492188 9.292969 22.3125 9.449219 22.15625 C 9.605469 22 9.785156 21.878906 9.988281 21.792969 C 10.195312 21.707031 10.40625 21.667969 10.628906 21.667969 C 10.851562 21.667969 11.0625 21.707031 11.269531 21.792969 C 11.472656 21.878906 11.652344 22 11.808594 22.15625 C 11.96875 22.3125 12.085938 22.492188 12.171875 22.699219 C 12.257812 22.902344 12.300781 23.113281 12.300781 23.335938 Z M 12.300781 23.335938 " fill-opacity="1" fill-rule="nonzero"/></g><g clip-path="url(#497be358f3)"><path fill="#f8a003" d="M 21.800781 23.335938 C 21.800781 23.558594 21.761719 23.769531 21.675781 23.976562 C 21.589844 24.179688 21.46875 24.359375 21.3125 24.519531 C 21.15625 24.675781 20.976562 24.796875 20.769531 24.878906 C 20.566406 24.964844 20.355469 25.007812 20.132812 25.007812 C 19.910156 25.007812 19.699219 24.964844 19.492188 24.878906 C 19.289062 24.796875 19.109375 24.675781 18.949219 24.519531 C 18.792969 24.359375 18.671875 24.179688 18.589844 23.976562 C 18.503906 23.769531 18.460938 23.558594 18.460938 23.335938 C 18.460938 23.113281 18.503906 22.902344 18.589844 22.699219 C 18.671875 22.492188 18.792969 22.3125 18.949219 22.15625 C 19.109375 22 19.289062 21.878906 19.492188 21.792969 C 19.699219 21.707031 19.910156 21.667969 20.132812 21.667969 C 20.355469 21.667969 20.566406 21.707031 20.769531 21.792969 C 20.976562 21.878906 21.15625 22 21.3125 22.15625 C 21.46875 22.3125 21.589844 22.492188 21.675781 22.699219 C 21.761719 22.902344 21.800781 23.113281 21.800781 23.335938 Z M 21.800781 23.335938 " fill-opacity="1" fill-rule="nonzero"/></g></svg>